<?xml version="1.0" standalone="no"?>
<!DOCTYPE svg PUBLIC "-//W3C//DTD SVG 20010904//EN"
 "http://www.w3.org/TR/2001/REC-SVG-20010904/DTD/svg10.dtd">
<svg version="1.0" xmlns="http://www.w3.org/2000/svg"
 width="199.000000pt" height="205.000000pt" viewBox="0 0 199.000000 205.000000"
 preserveAspectRatio="xMidYMid meet">
<metadata>
Created by potrace 1.16, written by Peter Selinger 2001-2019
</metadata>
<g transform="translate(0.000000,205.000000) scale(0.100000,-0.100000)"
fill="#000000" stroke="none">
<path d="M893 1840 c-24 -10 -83 -91 -83 -114 0 -9 -4 -16 -10 -16 -5 0 -10
-7 -10 -15 0 -8 -4 -15 -10 -15 -5 0 -10 -7 -10 -15 0 -8 -4 -15 -10 -15 -5 0
-10 -9 -10 -21 0 -11 -4 -18 -10 -14 -10 6 -80 -92 -80 -113 0 -7 -16 -30 -36
-50 -20 -20 -54 -67 -75 -104 -21 -36 -49 -79 -62 -95 -33 -41 -77 -111 -77
-123 0 -5 -4 -10 -8 -10 -5 0 -14 -16 -22 -35 -8 -19 -17 -35 -22 -35 -15 0
-68 -83 -68 -105 0 -21 41 -59 65 -61 6 0 122 -113 259 -252 137 -138 253
-249 257 -247 4 3 9 -2 13 -10 3 -10 19 -15 46 -15 39 0 46 6 384 343 189 188
351 357 360 374 20 40 13 76 -20 102 -13 10 -24 24 -24 30 0 6 -4 11 -9 11 -5
0 -28 20 -52 45 -24 25 -49 45 -56 45 -7 0 -13 6 -13 14 0 8 -14 26 -30 39
-16 14 -30 28 -30 30 0 8 -93 98 -117 114 -13 9 -23 19 -23 23 0 12 -74 86
-95 95 -11 4 -26 7 -34 6 -18 -3 -41 -26 -41 -40 0 -6 -6 -11 -13 -11 -15 0
-40 -27 -50 -54 -4 -11 -10 -16 -14 -12 -9 8 -53 -34 -53 -51 0 -7 -6 -13 -14
-13 -8 0 -23 -14 -34 -31 -10 -17 -30 -36 -43 -43 -13 -6 -29 -23 -36 -36 -7
-14 -17 -25 -22 -25 -12 0 -51 -40 -51 -52 0 -5 -10 -13 -22 -18 -13 -6 -28
-20 -34 -33 -6 -13 -14 -22 -17 -20 -8 5 -57 -44 -57 -56 0 -6 -10 -16 -22
-21 -13 -6 -27 -20 -33 -32 -5 -13 -13 -23 -17 -23 -26 0 22 83 209 363 122
181 213 327 213 340 0 27 -17 47 -40 47 -8 0 -21 9 -28 20 -13 22 -25 24 -59
10z m407 -376 c0 -13 13 -19 33 -15 5 1 11 -8 14 -19 3 -11 9 -21 14 -21 5 -1
14 -3 19 -4 6 -1 13 -3 16 -4 4 0 1 -7 -5 -15 -10 -12 -8 -13 8 -9 23 6 27 -7
9 -26 -11 -10 -9 -11 5 -5 13 5 20 1 24 -15 3 -12 13 -21 24 -21 11 0 19 -7
19 -15 0 -8 4 -15 9 -15 5 0 11 -9 14 -20 3 -12 14 -20 27 -20 16 0 20 -4 16
-15 -5 -15 5 -19 33 -15 9 1 12 -5 8 -19 -3 -12 0 -18 7 -15 6 2 19 -14 29
-36 19 -46 21 -60 7 -60 -6 0 -10 -3 -9 -7 4 -26 -16 -53 -37 -53 -15 0 -24
-6 -24 -15 0 -8 -7 -15 -15 -15 -8 0 -12 -6 -9 -14 3 -8 -3 -16 -15 -19 -12
-3 -21 -12 -21 -21 0 -9 -4 -16 -9 -16 -5 0 -11 -9 -14 -19 -3 -14 -11 -18
-25 -15 -18 5 -30 -12 -36 -51 0 -5 -10 -10 -21 -10 -11 0 -21 -8 -23 -18 -2
-9 -8 -17 -13 -17 -5 0 -9 -7 -9 -15 0 -9 -9 -15 -21 -15 -12 0 -23 -8 -26
-20 -3 -11 -9 -20 -14 -20 -5 0 -9 -7 -9 -15 0 -9 -9 -15 -25 -15 -16 0 -25
-6 -25 -15 0 -9 -10 -15 -22 -16 -13 0 -17 -3 -10 -6 6 -2 12 -11 12 -19 0 -7
-6 -11 -14 -8 -8 3 -22 -9 -36 -30 -12 -20 -30 -36 -40 -36 -11 0 -17 -7 -16
-17 0 -11 -6 -18 -15 -17 -11 1 -15 -5 -12 -15 4 -15 -10 -17 -141 -16 -112 0
-145 3 -141 12 2 7 -7 16 -21 19 -18 5 -24 12 -21 24 3 13 0 16 -14 13 -14 -4
-19 0 -19 16 0 15 -5 21 -17 19 -12 -2 -18 3 -17 15 1 9 -4 17 -12 17 -8 0
-14 7 -14 15 0 8 -8 15 -18 15 -16 0 -38 24 -40 44 0 5 -6 12 -14 17 -15 10
-21 56 -8 78 5 9 16 16 26 16 11 0 22 13 29 35 8 22 18 34 29 34 8 -1 25 14
37 33 13 21 27 32 35 29 10 -4 20 8 30 35 11 26 21 38 30 35 8 -3 19 4 25 15
6 11 17 18 24 15 8 -3 17 0 21 6 4 7 3 8 -4 4 -7 -4 -12 -1 -12 8 0 9 9 16 20
16 11 0 20 7 20 15 0 8 4 15 9 15 5 0 11 9 14 20 3 11 9 20 14 19 17 -3 33 1
31 9 -4 13 22 52 35 52 17 0 47 36 47 56 0 10 7 14 22 12 16 -2 24 3 26 16 6
27 38 59 51 51 7 -4 16 6 22 25 7 17 22 35 34 40 13 5 29 22 36 38 9 22 20 29
41 30 18 0 28 -4 28 -14z"/>
<path d="M1121 1042 c-8 -13 -24 -17 -78 -17 -62 0 -68 -2 -71 -22 -2 -16 -9
-21 -26 -19 -12 1 -27 5 -33 9 -10 6 -30 -9 -32 -25 -1 -5 -1 -9 -2 -10 -6
-21 -5 -38 2 -38 5 0 9 -7 9 -15 0 -14 11 -19 36 -16 7 1 15 -16 19 -36 5 -23
10 -31 12 -20 3 9 8 17 13 17 15 0 32 -30 27 -50 -3 -13 0 -20 9 -20 8 0 17
-6 20 -14 3 -8 13 -12 26 -8 18 4 20 2 16 -16 -5 -19 -2 -22 23 -23 16 -1 39
-2 51 -2 32 -2 58 45 41 72 -9 14 -9 22 -2 26 5 4 8 12 6 18 -2 7 4 24 14 38
13 19 17 36 13 57 -5 24 -2 33 14 43 16 10 18 17 11 36 -11 30 -11 42 0 25 7
-11 9 -11 14 2 7 18 10 17 -65 21 -46 3 -60 0 -67 -13z"/>
</g>
</svg>
