<?xml version="1.0" standalone="no"?>
<!DOCTYPE svg PUBLIC "-//W3C//DTD SVG 20010904//EN"
 "http://www.w3.org/TR/2001/REC-SVG-20010904/DTD/svg10.dtd">
<svg version="1.0" xmlns="http://www.w3.org/2000/svg"
 width="199.000000pt" height="205.000000pt" viewBox="0 0 199.000000 205.000000"
 preserveAspectRatio="xMidYMid meet">

<g transform="translate(0.000000,205.000000) scale(0.100000,-0.100000)"
fill="#000000" stroke="none">
<path d="M893 1840 c-24 -10 -83 -91 -83 -114 0 -9 -4 -16 -10 -16 -5 0 -10
-7 -10 -15 0 -8 -4 -15 -10 -15 -5 0 -10 -7 -10 -15 0 -8 -4 -15 -10 -15 -5 0
-10 -9 -10 -21 0 -11 -4 -18 -10 -14 -10 6 -80 -92 -80 -113 0 -7 -16 -30 -36
-50 -20 -20 -54 -67 -75 -104 -21 -36 -49 -79 -62 -95 -33 -41 -77 -111 -77
-123 0 -5 -4 -10 -8 -10 -5 0 -14 -16 -22 -35 -8 -19 -17 -35 -22 -35 -15 0
-68 -83 -68 -105 0 -21 41 -59 65 -61 6 0 122 -113 259 -252 137 -138 253
-249 257 -247 4 3 9 -2 13 -10 3 -10 19 -15 46 -15 39 0 46 6 384 343 189 188
351 357 360 374 20 40 13 76 -20 102 -13 10 -24 24 -24 30 0 6 -4 11 -9 11 -5
0 -28 20 -52 45 -24 25 -49 45 -56 45 -7 0 -13 6 -13 14 0 8 -14 26 -30 39
-16 14 -30 28 -30 30 0 8 -93 98 -117 114 -13 9 -23 19 -23 23 0 12 -74 86
-95 95 -11 4 -26 7 -34 6 -18 -3 -41 -26 -41 -40 0 -6 -6 -11 -13 -11 -15 0
-40 -27 -50 -54 -4 -11 -10 -16 -14 -12 -9 8 -53 -34 -53 -51 0 -7 -6 -13 -14
-13 -8 0 -23 -14 -34 -31 -10 -17 -30 -36 -43 -43 -13 -6 -29 -23 -36 -36 -7
-14 -17 -25 -22 -25 -12 0 -51 -40 -51 -52 0 -5 -10 -13 -22 -18 -13 -6 -28
-20 -34 -33 -6 -13 -14 -22 -17 -20 -8 5 -57 -44 -57 -56 0 -6 -10 -16 -22
-21 -13 -6 -27 -20 -33 -32 -5 -13 -13 -23 -17 -23 -26 0 22 83 209 363 122
181 213 327 213 340 0 27 -17 47 -40 47 -8 0 -21 9 -28 20 -13 22 -25 24 -59
10z m47 -50 c6 -11 17 -19 25 -18 13 3 15 0 15 -20 0 -4 -12 -8 -27 -9 -48 -1
-53 -3 -53 -17 0 -10 -9 -14 -25 -13 -14 1 -25 7 -24 12 7 35 14 45 31 45 11
0 22 9 25 20 7 26 19 25 33 0z m-50 -161 c0 -23 -22 -50 -37 -45 -9 4 -17 -1
-20 -14 -4 -16 -13 -19 -54 -18 -35 0 -49 5 -49 15 0 8 6 13 13 12 26 -3 37 2
37 17 0 12 6 15 21 11 15 -4 23 0 26 12 5 19 63 28 63 10z m323 -76 c-3 -8 2
-13 12 -13 10 0 14 -5 11 -12 -3 -7 -9 -21 -12 -30 -4 -11 -16 -17 -33 -16
-40 2 -43 7 -21 39 18 24 19 29 6 29 -19 0 -19 1 -5 37 l10 28 19 -24 c10 -14
16 -31 13 -38z m-413 -88 c0 -8 -7 -15 -16 -15 -9 0 -18 -9 -21 -20 -5 -17
-11 -19 -39 -14 -29 5 -32 4 -27 -14 4 -18 1 -21 -23 -19 -26 2 -49 27 -25 27
6 0 11 7 11 15 0 8 3 15 8 16 27 3 46 9 51 17 3 6 20 12 36 15 17 2 33 5 38 6
4 0 7 -6 7 -14z m271 -2 c0 -11 3 -13 6 -5 10 25 18 11 19 -33 1 -25 -2 -45
-7 -45 -5 0 -9 8 -10 18 0 11 -2 12 -6 4 -3 -7 0 -19 7 -27 14 -17 -17 -72
-33 -56 -11 11 -18 105 -10 139 6 26 33 30 34 5z m229 1 c0 -13 13 -19 33 -15
5 1 11 -8 14 -19 3 -11 9 -21 14 -21 5 -1 14 -3 19 -4 6 -1 13 -3 16 -4 4 0 1
-7 -5 -15 -10 -12 -8 -13 8 -9 23 6 27 -7 9 -26 -11 -10 -9 -11 5 -5 13 5 20
1 24 -15 3 -12 13 -21 24 -21 11 0 19 -7 19 -15 0 -8 4 -15 9 -15 5 0 11 -9
14 -20 3 -12 14 -20 27 -20 16 0 20 -4 16 -15 -5 -15 5 -19 33 -15 9 1 12 -5
8 -19 -3 -12 0 -18 7 -15 6 2 19 -14 29 -36 19 -46 21 -60 7 -60 -6 0 -10 -3
-9 -7 4 -26 -16 -53 -37 -53 -15 0 -24 -6 -24 -15 0 -8 -7 -15 -15 -15 -8 0
-12 -6 -9 -14 3 -8 -3 -16 -15 -19 -12 -3 -21 -12 -21 -21 0 -9 -4 -16 -9 -16
-5 0 -11 -9 -14 -19 -3 -14 -11 -18 -25 -15 -18 5 -30 -12 -36 -51 0 -5 -10
-10 -21 -10 -11 0 -21 -8 -23 -18 -2 -9 -8 -17 -13 -17 -5 0 -9 -7 -9 -15 0
-9 -9 -15 -21 -15 -12 0 -23 -8 -26 -20 -3 -11 -9 -20 -14 -20 -5 0 -9 -7 -9
-15 0 -9 -9 -15 -25 -15 -16 0 -25 -6 -25 -15 0 -9 -10 -15 -22 -16 -13 0 -17
-3 -10 -6 6 -2 12 -11 12 -19 0 -7 -6 -11 -14 -8 -8 3 -22 -9 -36 -30 -12 -20
-30 -36 -40 -36 -11 0 -17 -7 -16 -17 0 -11 -6 -18 -15 -17 -11 1 -15 -5 -12
-15 4 -15 -10 -17 -141 -16 -112 0 -145 3 -141 12 2 7 -7 16 -21 19 -18 5 -24
12 -21 24 3 13 0 16 -14 13 -14 -4 -19 0 -19 16 0 15 -5 21 -17 19 -12 -2 -18
3 -17 15 1 9 -4 17 -12 17 -8 0 -14 7 -14 15 0 8 -8 15 -18 15 -16 0 -38 24
-40 44 0 5 -6 12 -14 17 -15 10 -21 56 -8 78 5 9 16 16 26 16 11 0 22 13 29
35 8 22 18 34 29 34 8 -1 25 14 37 33 13 21 27 32 35 29 10 -4 20 8 30 35 11
26 21 38 30 35 8 -3 19 4 25 15 6 11 17 18 24 15 8 -3 17 0 21 6 4 7 3 8 -4 4
-7 -4 -12 -1 -12 8 0 9 9 16 20 16 11 0 20 7 20 15 0 8 4 15 9 15 5 0 11 9 14
20 3 11 9 20 14 19 17 -3 33 1 31 9 -4 13 22 52 35 52 17 0 47 36 47 56 0 10
7 14 22 12 16 -2 24 3 26 16 6 27 38 59 51 51 7 -4 16 6 22 25 7 17 22 35 34
40 13 5 29 22 36 38 9 22 20 29 41 30 18 0 28 -4 28 -14z m-515 -34 c3 -5 1
-10 -4 -10 -6 0 -11 5 -11 10 0 6 2 10 4 10 3 0 8 -4 11 -10z m155 -104 c0 -8
5 -16 11 -18 8 -3 8 -11 -2 -28 -8 -14 -17 -27 -20 -30 -3 -3 -8 -13 -12 -22
-4 -12 -1 -18 9 -18 27 0 9 -23 -20 -26 -26 -3 -27 -1 -21 27 4 18 2 36 -5 44
-10 12 -9 16 3 21 9 3 19 19 22 35 7 29 35 41 35 15z m90 4 c0 -5 -2 -10 -4
-10 -3 0 -8 5 -11 10 -3 6 -1 10 4 10 6 0 11 -4 11 -10z m-352 -48 c-9 -23
-17 -28 -38 -27 -21 1 -26 -2 -23 -15 4 -14 -4 -19 -34 -22 -21 -3 -41 -2 -46
1 -11 11 16 61 33 60 39 -3 60 2 60 16 0 10 10 15 29 15 28 0 29 -1 19 -28z
m277 -52 c-3 -5 -10 -10 -16 -10 -5 0 -9 5 -9 10 0 6 7 10 16 10 8 0 12 -4 9
-10z m-145 -25 c0 -3 -6 -14 -12 -25 -11 -17 -10 -22 2 -30 12 -7 12 -12 1
-34 -11 -19 -11 -29 -3 -39 14 -17 6 -28 -15 -20 -9 4 -16 -2 -20 -16 -3 -11
-9 -21 -14 -21 -13 0 -22 22 -12 29 18 12 23 41 8 41 -8 0 -15 5 -15 11 0 7 9
9 21 6 16 -4 18 -3 9 8 -12 14 -3 65 11 65 5 0 9 7 9 15 0 8 7 15 15 15 8 0
15 -2 15 -5z m-232 -72 c2 -7 -1 -13 -6 -13 -5 0 -12 -9 -15 -21 -4 -13 -10
-18 -18 -13 -7 4 -17 0 -24 -9 -9 -13 -105 -35 -105 -24 0 2 7 17 15 34 13 27
19 29 59 28 36 -2 43 1 39 14 -3 13 2 17 23 16 15 0 29 -6 32 -12z m92 -62 c0
-6 -4 -12 -10 -16 -6 -4 -5 -14 2 -29 8 -19 7 -31 -5 -55 -13 -26 -13 -31 -1
-31 8 0 14 -5 14 -11 0 -5 -4 -8 -9 -5 -13 8 -42 -4 -35 -15 6 -10 -24 -25
-32 -16 -3 3 0 14 7 25 10 17 10 23 -1 37 -12 15 -12 19 4 30 12 10 16 20 11
37 -5 18 -4 20 4 8 9 -13 11 -13 11 3 0 9 5 17 10 17 6 0 10 7 10 15 0 8 5 15
10 15 6 0 10 -4 10 -9z m-144 -102 c3 -6 0 -15 -7 -20 -8 -5 -9 -9 -3 -9 6 0
11 -12 10 -27 -1 -20 -6 -27 -18 -25 -9 1 -19 -2 -23 -8 -3 -5 0 -7 8 -4 14 5
31 -31 22 -47 -7 -10 -45 1 -45 13 0 6 7 8 15 4 8 -3 15 -1 15 5 0 6 -8 9 -17
8 -41 -4 -59 3 -69 26 -7 13 -9 27 -5 30 3 4 7 10 7 13 9 45 17 52 60 52 23 0
46 -5 50 -11z m397 -533 c4 -9 14 -12 26 -9 14 4 21 1 21 -10 0 -25 -48 -28
-65 -3 -8 11 -15 24 -15 28 0 14 28 9 33 -6z"/>
<path d="M1085 1050 c-3 -6 1 -7 9 -4 18 7 21 14 7 14 -6 0 -13 -4 -16 -10z"/>
<path d="M1121 1042 c-8 -13 -24 -17 -78 -17 -62 0 -68 -2 -71 -22 -2 -16 -9
-21 -26 -19 -12 1 -27 5 -33 9 -10 6 -30 -9 -32 -25 -1 -5 -1 -9 -2 -10 -6
-21 -5 -38 2 -38 5 0 9 -7 9 -15 0 -14 11 -19 36 -16 7 1 15 -16 19 -36 5 -23
10 -31 12 -20 3 9 8 17 13 17 15 0 32 -30 27 -50 -3 -13 0 -20 9 -20 8 0 17
-6 20 -14 3 -8 13 -12 26 -8 18 4 20 2 16 -16 -5 -19 -2 -22 23 -23 16 -1 39
-2 51 -2 32 -2 58 45 41 72 -9 14 -9 22 -2 26 5 4 8 12 6 18 -2 7 4 24 14 38
13 19 17 36 13 57 -5 24 -2 33 14 43 16 10 18 17 11 36 -11 30 -11 42 0 25 7
-11 9 -11 14 2 7 18 10 17 -65 21 -46 3 -60 0 -67 -13z m-121 -42 c0 -5 -4
-10 -10 -10 -5 0 -10 5 -10 10 0 6 5 10 10 10 6 0 10 -4 10 -10z"/>
<path d="M627 689 c7 -7 15 -10 18 -7 3 3 -2 9 -12 12 -14 6 -15 5 -6 -5z"/>
<path d="M1146 692 c-3 -5 1 -9 9 -9 8 0 12 4 9 9 -3 4 -7 8 -9 8 -2 0 -6 -4
-9 -8z"/>
<path d="M486 1083 c-6 -14 -5 -15 5 -6 7 7 10 15 7 18 -3 3 -9 -2 -12 -12z"/>
<path d="M485 280 c-4 -6 -1 -18 7 -27 10 -13 10 -17 1 -20 -7 -3 -13 -20 -13
-39 0 -31 3 -34 28 -33 15 0 21 3 15 6 -7 2 -13 16 -13 29 0 32 27 31 42 -1 6
-14 15 -25 20 -25 9 0 4 92 -6 109 -9 14 -73 14 -81 1z m64 -19 c8 -5 11 -16
8 -25 -5 -14 -11 -15 -27 -6 -11 6 -20 17 -20 25 0 17 18 19 39 6z"/>
<path d="M626 274 c-9 -23 -7 -87 3 -102 12 -20 21 9 21 69 0 48 -12 65 -24
33z"/>
<path d="M739 278 c-8 -71 -6 -119 4 -115 7 2 12 15 12 30 0 40 12 42 26 3 16
-46 43 -47 55 -4 13 46 34 48 34 4 0 -20 4 -36 9 -36 11 0 19 42 17 90 -2 64
-66 40 -66 -25 0 -36 -36 -5 -42 35 -3 27 -47 43 -49 18z"/>
<path d="M956 251 c-7 -10 54 -34 63 -25 7 7 -28 34 -45 34 -7 0 -15 -4 -18
-9z"/>
<path d="M1221 243 c-12 -8 -21 -23 -21 -34 0 -17 5 -19 43 -13 51 8 64 18 48
37 -18 22 -47 26 -70 10z m34 -13 c3 -5 2 -10 -4 -10 -5 0 -13 5 -16 10 -3 6
-2 10 4 10 5 0 13 -4 16 -10z"/>
<path d="M1350 253 c-41 -12 -41 -12 -31 -32 6 -10 25 -24 43 -30 l33 -12 -27
26 c-33 31 -35 39 -8 30 11 -3 20 -2 20 4 0 14 -12 19 -30 14z"/>
<path d="M1040 236 c0 -7 5 -27 11 -45 13 -37 45 -42 58 -8 19 51 22 67 12 67
-6 0 -13 -11 -17 -25 -3 -14 -9 -25 -13 -25 -4 0 -14 11 -21 25 -15 27 -30 33
-30 11z"/>
<path d="M1150 241 c0 -6 5 -13 11 -17 8 -4 8 -9 0 -17 -15 -15 -14 -50 2 -45
6 3 13 23 15 46 2 33 0 42 -12 42 -9 0 -16 -4 -16 -9z"/>
<path d="M926 204 c-8 -29 4 -48 25 -42 11 2 11 9 -2 36 l-17 32 -6 -26z"/>
<path d="M991 188 c-5 -13 -7 -25 -5 -27 7 -7 34 21 34 35 0 22 -20 16 -29 -8z"/>
<path d="M1323 163 c9 -2 25 -2 35 0 9 3 1 5 -18 5 -19 0 -27 -2 -17 -5z"/>
</g>
</svg>
